<svg class="chart col-xs-6" width="500" height="500" id="svg-0" version="1.1" xmlns="http://www.w3.org/2000/svg"><g class="arc" transform="translate(208.57535155775142,216.83641458827017)"><path d="M0,115.55493891400013A115.55493891400013,115.55493891400013 0 1,1 0,-115.55493891400013A115.55493891400013,115.55493891400013 0 1,1 0,115.55493891400013Z" style="fill: rgb(0, 255, 0); opacity: 0.200000002980232;"></path><text x="32.17068018828033" y="70.9961197677541" style="cursor: default; display: block; fill: rgb(255, 255, 255); pointer-events: none; text-anchor: middle;">Cell Line</text><text x="31.17068018828033" y="69.9961197677541" style="cursor: default; display: block; pointer-events: none; text-anchor: middle;">Cell Line</text><text x="32.17068018828033" y="90.9961197677541" style="cursor: default; display: block; pointer-events: none; text-anchor: middle;">11367</text></g><g class="arc" transform="translate(231.1432196781025,136.46542681962728)"><path d="M0,118.85678032189755A118.85678032189755,118.85678032189755 0 1,1 0,-118.85678032189755A118.85678032189755,118.85678032189755 0 1,1 0,118.85678032189755Z" style="fill: rgb(0, 0, 255); opacity: 0.200000002980232;"></path><text x="57.68636495496267" y="-46.46632979122472" style="cursor: default; display: block; fill: rgb(255, 255, 255); pointer-events: none; text-anchor: middle;">Tissue</text><text x="56.68636495496267" y="-47.46632979122472" style="cursor: default; display: block; pointer-events: none; text-anchor: middle;">Tissue</text><text x="57.68636495496267" y="-26.466329791224723" style="cursor: default; display: block; pointer-events: none; text-anchor: middle;">15498</text></g><g class="arc" transform="translate(137.13377018292488,160.86822442246518)"><path d="M0,137.13377018292488A137.13377018292488,137.13377018292488 0 1,1 0,-137.13377018292488A137.13377018292488,137.13377018292488 0 1,1 0,137.13377018292488Z" style="fill: rgb(255, 0, 0); opacity: 0.200000002980232;"></path><text x="-67.82720052927839" y="-14.18785679417823" style="cursor: default; display: block; fill: rgb(255, 255, 255); pointer-events: none; text-anchor: middle;">Primary</text><text x="-68.82720052927839" y="-15.18785679417823" style="cursor: default; display: block; pointer-events: none; text-anchor: middle;">Primary</text><text x="-67.82720052927839" y="5.812143205821769" style="cursor: default; display: block; pointer-events: none; text-anchor: middle;">30517</text></g></svg>